<svg data-v-0dd9719b="" version="1.0" xmlns="http://www.w3.org/2000/svg" xmlns:xlink="http://www.w3.org/1999/xlink" width="100%" height="100%" viewBox="0 0 340.000000 250.000000" preserveAspectRatio="xMidYMid meet" color-interpolation-filters="sRGB" style="margin: auto;"> <rect data-v-0dd9719b="" x="0" y="0" width="100%" height="100%" fill="#ffffff" fill-opacity="1" class="background"></rect> <rect data-v-0dd9719b="" x="0" y="0" width="100%" height="100%" fill="url(#watermark)" fill-opacity="1" class="watermarklayer"></rect> <g data-v-0dd9719b="" fill="#26125b" class="endsvg" transform="translate(103.30000305175781,87.1919937133789)"><g class="tp-name" transform="translate(0,0)"><g><rect data-gra="graph-name-bg" stroke-width="2" class="i-icon-bg" x="0" y="0" width="133.39999389648438" height="57.47999954223633" fill-opacity="0"></rect> <!----> <!----> </g> <g transform="translate(0,0)"><g data-gra="path-name-bg"><g><rect data-gra="graph-name-bg" stroke-width="2" class="i-icon-bg" x="0" y="0" width="76.70999908447266" height="57.47999954223633" fill-opacity="0"></rect> <!----> <!----> </g> <g transform="translate(5,5)"><g data-gra="path-name"><g transform="scale(1)"><path d="M34.12-16.88L34.12-16.88Q34.12-12.54 32.61-9.28Q31.10-6.03 28.49-3.87Q25.87-1.71 22.36-0.63Q18.85 0.44 14.82 0.44L14.82 0.44Q13.27 0.44 11.41 0.03Q9.55-0.38 7.65-1.00Q5.74-1.62 3.98-2.33Q2.22-3.05 0.86-3.68L0.86-3.68L2.25-16.76Q4.95-15.14 8.24-14.30Q11.52-13.46 14.69-13.46L14.69-13.46Q15.30-13.46 16.15-13.50Q17.01-13.55 17.79-13.79Q18.57-14.03 19.11-14.50Q19.65-14.98 19.65-15.87L19.65-15.87Q19.65-16.47 19.27-16.90Q18.88-17.33 18.28-17.60Q17.68-17.87 16.92-18.01Q16.15-18.15 15.42-18.22Q14.69-18.28 14.06-18.28Q13.43-18.28 13.04-18.28L13.04-18.28Q10.31-18.28 8.08-19.23Q5.84-20.19 4.24-21.88Q2.63-23.58 1.75-25.91Q0.86-28.25 0.86-30.98L0.86-30.98Q0.86-34.72 2.36-37.69Q3.87-40.66 6.40-42.74Q8.92-44.81 12.19-45.93Q15.46-47.04 18.95-47.04L18.95-47.04Q20.50-47.04 22.15-46.93Q23.80-46.81 25.44-46.53Q27.07-46.24 28.63-45.80Q30.18-45.35 31.58-44.69L31.58-44.69L30.37-31.80Q28.22-32.53 25.85-33.02Q23.49-33.52 21.23-33.52L21.23-33.52Q20.82-33.52 20.17-33.50Q19.52-33.48 18.80-33.40Q18.09-33.33 17.36-33.17Q16.63-33.01 16.06-32.74Q15.49-32.47 15.14-32.02Q14.79-31.58 14.82-30.98L14.82-30.98Q14.85-30.28 15.35-29.85Q15.84-29.42 16.61-29.18Q17.39-28.95 18.33-28.85Q19.27-28.75 20.19-28.74Q21.11-28.72 21.90-28.74Q22.69-28.75 23.20-28.69L23.20-28.69Q25.74-28.53 27.77-27.61Q29.80-26.69 31.21-25.17Q32.63-23.65 33.37-21.53Q34.12-19.42 34.12-16.88ZM67.57-44.62L67.57-44.62L65.79-31.23Q64.87-31.48 63.95-31.58Q63.03-31.67 62.11-31.67L62.11-31.67Q59.76-31.67 57.64-31.06Q55.51-30.44 53.88-29.17Q52.24-27.90 51.27-25.99Q50.31-24.09 50.31-21.52L50.31-21.52Q50.31-19.87 50.83-18.66Q51.35-17.46 52.30-16.66Q53.26-15.87 54.56-15.49Q55.86-15.11 57.41-15.11L57.41-15.11Q58.59-15.11 59.86-15.36Q61.13-15.62 62.37-16.03Q63.60-16.44 64.78-16.98Q65.95-17.52 66.94-18.09L66.94-18.09L65.67-3.17Q64.43-2.54 62.98-2.05Q61.54-1.56 60.02-1.19Q58.49-0.83 56.97-0.63Q55.45-0.44 54.05-0.44L54.05-0.44Q50.02-0.44 46.53-1.94Q43.04-3.43 40.47-6.03Q37.90-8.63 36.42-12.17Q34.94-15.71 34.94-19.80L34.94-19.80Q34.94-25.23 36.50-30.04Q38.05-34.85 41.07-38.47Q44.08-42.08 48.54-44.18Q53.00-46.27 58.81-46.27L58.81-46.27Q61.00-46.27 63.30-45.93Q65.60-45.58 67.57-44.62Z" transform="translate(-0.85693359375, 47.0361328125)"></path></g></g></g></g> <g data-gra="path-name-1-bg" transform="translate(76.70999908447266,0)" mask="url(#0b5c1d69-8634-4a50-866c-486febb3ace2)"><g><rect data-gra="graph-name-bg" stroke-width="2" class="i-icon-bg" x="0" y="0" width="56.69000244140625" height="57.47999954223633" fill="#bb2e2e"></rect> <!----> <!----> </g> <g transform="translate(5,5)"><g data-gra="path-name-1" fill="#bb2e2e"><g transform="scale(1)"><path d="M29.52-18.09L29.52-18.09L28.18-4.00L1.46-1.90Q1.65-12.98 1.89-23.93Q2.13-34.88 2.48-45.96L2.48-45.96L18.98-45.96Q18.25-39.01 17.58-32.07Q16.92-25.14 16.63-18.09L16.63-18.09Q18.12-18.03 19.58-18.03Q21.04-18.03 22.53-18.03L22.53-18.03Q24.31-18.03 26.03-18.06Q27.74-18.09 29.52-18.09ZM31.26-43.80L48.15-44.69L44.66-1.46L31.26-0.76L31.26-43.80Z" transform="translate(-1.4599609375, 47.0361328125)"></path></g></g></g></g></g></g> <!----> <!----> <!----> <!----> <!----> <g data-gra="path-slogan" fill-rule="" class="tp-slogan" fill="#26125b" transform="translate(28.470149993896484,61.47999954223633)"><!----> <!----> <g transform="scale(1, 1)"><g transform="scale(2.220000000000001)"><path d="M5.10-4.33L5.10-4.33L4.33-4.33Q4.27-5.50 2.80-5.57L2.80-5.57Q1.43-5.53 1.43-4.50L1.43-4.50Q1.43-3.83 2.17-3.73L2.17-3.73L3.90-3.33Q5.27-3.00 5.27-1.67L5.27-1.67Q5.23 0.03 2.87 0.10L2.87 0.10Q1.57 0.10 1.03-0.43L1.03-0.43Q0.37-0.93 0.40-1.97L0.40-1.97L1.20-1.97Q1.23-0.57 2.87-0.53L2.87-0.53Q4.47-0.57 4.50-1.57L4.50-1.57Q4.63-2.40 3.17-2.67L3.17-2.67L1.90-2.93Q0.60-3.30 0.60-4.40L0.60-4.40Q0.70-6.20 2.73-6.27L2.73-6.27Q5.03-6.27 5.10-4.33ZM6.30-6.10L7.13-6.10L7.13-0.73L10.23-0.73L10.23 0L6.30 0L6.30-6.10ZM15.87-3.03L15.87-3.03Q15.74-5.43 13.74-5.57L13.74-5.57Q11.70-5.47 11.60-3.03L11.60-3.03Q11.70-0.67 13.74-0.57L13.74-0.57Q15.74-0.70 15.87-3.03ZM16.70-3.03L16.70-3.03Q16.50 0 13.74 0.10L13.74 0.10Q10.93 0 10.73-3.03L10.73-3.03Q10.90-6.20 13.74-6.27L13.74-6.27Q16.50-6.17 16.70-3.03ZM22.24-2.57L20.37-2.57L20.37-3.27L23.04-3.27L23.04 0L22.50 0L22.30-0.77Q21.60 0.07 20.30 0.10L20.30 0.10Q19.07 0.10 18.40-0.53L18.40-0.53Q17.40-1.47 17.44-3.10L17.44-3.10Q17.67-6.13 20.34-6.27L20.34-6.27Q22.60-6.13 22.94-4.27L22.94-4.27L22.14-4.27Q21.80-5.53 20.30-5.57L20.30-5.57Q18.40-5.43 18.30-3.07L18.30-3.07Q18.30-0.53 20.34-0.53L20.34-0.53Q21.07-0.53 21.60-0.93L21.60-0.93Q22.27-1.47 22.24-2.57L22.24-2.57ZM28.34 0L27.74-1.77L25.27-1.77L24.64 0L23.80 0L26.10-6.10L27.04-6.10L29.24 0L28.34 0ZM26.50-5.20L25.54-2.50L27.44-2.50L26.54-5.20L26.50-5.20ZM30.97-6.10L34.04-1.17L34.04-6.10L34.84-6.10L34.84 0L33.90 0L30.80-4.93L30.77-4.93L30.77 0L29.97 0L29.97-6.10L30.97-6.10Z" transform="translate(-0.4000579794173069, 6.267575010871141)"></path></g></g></g></g><mask id="0b5c1d69-8634-4a50-866c-486febb3ace2"><g fill="white"><rect data-gra="graph-name-bg" stroke-width="2" class="i-icon-bg" x="0" y="0" width="56.69000244140625" height="57.47999954223633"></rect>   </g> <g transform="translate(5,5)" fill="black"><g data-gra="path-name-1"><g transform="scale(1)"><path d="M29.52-18.09L29.52-18.09L28.18-4.00L1.46-1.90Q1.65-12.98 1.89-23.93Q2.13-34.88 2.48-45.96L2.48-45.96L18.98-45.96Q18.25-39.01 17.58-32.07Q16.92-25.14 16.63-18.09L16.63-18.09Q18.12-18.03 19.58-18.03Q21.04-18.03 22.53-18.03L22.53-18.03Q24.31-18.03 26.03-18.06Q27.74-18.09 29.52-18.09ZM31.26-43.80L48.15-44.69L44.66-1.46L31.26-0.76L31.26-43.80Z" transform="translate(-1.4599609375, 47.0361328125)"></path></g></g></g></mask><defs v-gra="od"></defs></svg>